<svg id="Icon" width="125.86" height="114.07" enable-background="new 0 0 250 250" version="1.1" viewBox="0 0 125.86 114.07" xmlns="http://www.w3.org/2000/svg">
 <g transform="translate(.26322 -35.242)" fill="#00cc2c">
  <g transform="matrix(.98481 .17365 .17365 -.98481 -80.93 189.07)">
   <g>
    <path d="m155.95 182.4c-0.9 0-1.8 0-2.7-0.1-1.1 0-30.2-0.4-46.2-17.2l-0.4-0.4-0.2-0.5c-0.1-0.4-3.5-9.9-3.5-20.2 0-10.2 3.3-21.7 3.4-22.2 1.6-6.7 13.6-15.2 25.7-23.3l1.7-1.2c7.9-5.3 11.2-14.2 13.6-20.6 2-5.3 3.6-9.5 7.5-9 5.3 0.7 8.9 3 10.8 6.7 4.6 8.8-2.6 22.8-6.9 31.2-0.4 0.8-0.9 1.7-1.3 2.5 1.2 0.2 2.8 0.5 4.1 0.7 5.4 0.8 12.1 1.9 16.4 4.2 2 0.9 3.9 2.3 5.4 4.1 2.8 3.3 4.1 7 3.7 11.1-0.4 3.9-1.9 7.2-4.4 10 0.3 1.7 0.4 3.2 0.3 4.5-0.2 3.4-1.4 6.5-3.6 9.2 0.3 2.6 0 5.2-1.1 7.8-0.9 2.4-2.3 4.5-4.1 6.1-0.3 5.1-2.1 9.1-5.3 12.1-2.9 2.9-7.4 4.5-12.9 4.5z" fill="#00cc2c"/>
    <path d="m111.2 161.9c14.6 14.9 42 15.2 42.3 15.2 5.5 0.4 9.5-0.6 12.2-3.1 2.4-2.3 3.6-5.4 3.7-9.6v-1.3l1-0.8c1.6-1.2 2.7-2.7 3.4-4.6 0.9-2.2 1.1-4.2 0.6-6.2l-0.3-1.3 1-1c1.9-2 2.9-4.3 3.1-7 0.1-1.2 0-2.6-0.5-4.3l-0.4-1.5 1.2-1c2.3-2.1 3.6-4.6 3.9-7.7 0.3-2.7-0.5-5.1-2.4-7.3-1.1-1.2-2.3-2.1-3.8-2.8-3.7-2-10.2-3-14.9-3.8-6-0.9-8.2-1.3-9-3.4-0.6-1.5 0.1-2.8 2.4-7.2 3.3-6.5 10.2-20 6.9-26.5-1.1-2.1-3.2-3.3-6.5-3.9-0.7 0.9-1.7 3.5-2.5 5.6-2.5 6.7-6.3 16.9-15.6 23.1l-1.8 1.2c-6.7 4.5-22.3 15-23.6 20.4-0.1 0.2-3.3 11.4-3.3 20.8-0.1 8.2 2.2 16 2.9 18z" fill="#e0ffe7"/>
   </g>
  </g>
  <g transform="translate(-62.5 -67.66)">
   <path d="m110.74 173.8h-40.8l-0.7-1.4c-0.3-0.6-7-14.2-7-28.1 0-22.5 6.9-33 7.2-33.5l0.8-1.1h39.3l-1.9 3.7c-0.1 0.1-6.5 13.2-6.5 29.2 0 19.1 6.1 27 6.2 27z" fill="#00cc2c"/>
   <path d="m73.5 168.6h27.7c-2.1-4.6-4.9-13-4.9-26.1 0-12.1 3.3-22.5 5.4-27.8h-28.4c-1.6 3.1-5.7 12.8-5.7 29.5 0.1 10.2 4.2 20.7 5.9 24.4z" fill="#e0ffe7"/>
   <path d="m90.5 168.2c-3.6 0-7-3.2-8.1-7.9-0.6-2.4-0.4-4.7 0.3-6.7 0.9-2.3 2.6-3.9 4.7-4.4 4.1-0.9 8.2 2.5 9.4 7.7 0.6 2.4 0.4 4.7-0.3 6.7-0.9 2.3-2.6 3.9-4.7 4.4-0.4 0.1-0.8 0.2-1.3 0.2z" fill="#00cc2c"/>
   <path d="m88.8 154.1h-0.2c-0.4 0.1-0.8 0.6-1 1.2-0.4 1-0.4 2.4-0.1 3.7 0.6 2.7 2.4 4.1 3.2 3.9 0.4-0.1 0.8-0.6 1-1.2 0.4-1 0.4-2.4 0.1-3.7-0.5-2.4-2.1-3.9-3-3.9z" fill="#fff"/>
  </g>
 </g>
</svg>
