<svg version="1.1" viewBox="0 0 32.001 32" xml:space="preserve" xmlns="http://www.w3.org/2000/svg">
    <path d="m0.29338 31.708c0.195 0.195 0.451 0.292 0.707 0.292 0.256 0 0.512-0.098 0.708-0.293l14.292-14.309 14.292 14.309c0.195 0.196 0.451 0.293 0.708 0.293 0.256 0 0.512-0.098 0.707-0.292 0.391-0.39 0.391-1.023 1e-3 -1.414l-14.278-14.294 14.277-14.293c0.39-0.391 0.39-1.024-1e-3 -1.414-0.392-0.391-1.024-0.391-1.414 1e-3l-14.293 14.309-14.292-14.309c-0.391-0.391-1.024-0.391-1.414-1e-3 -0.391 0.39-0.391 1.023-1e-3 1.414l14.276 14.293-14.276 14.294c-0.39 0.39-0.39 1.024 1e-3 1.414z" fill="hsl(133, 100%, 30%)" />
</svg>
