<svg className="googoraa-nav-logo" viewBox="0 0 43.646 40.528" xmlns="http://www.w3.org/2000/svg">
  <g transform="translate(-82.698 -81.401)">
    <g transform="matrix(.35278 0 0 -.35278 51.905 162.66)">
      <path d="m87.293 172.9c0-31.724 25.715-57.439 57.442-57.439 31.724 0 57.44 25.715 57.44 57.439v3e-3h-33.08c0-13.451-10.881-24.357-24.325-24.401h-0.075c-13.443 0.044-24.325 10.95-24.325 24.398 0 13.464 10.904 24.378 24.363 24.4v-0.013h33.267c5.994 0 11.617 1.597 16.46 4.387 9.894 5.704 16.55 16.384 16.55 28.622l-66.275 0.046c-31.727 0-57.442-25.716-57.442-57.442" fill="hsl(133, 100%, 40%)" />
    </g>
  </g>
</svg>