<svg width="17.027" height="17.019" version="1.1" viewBox="0 0 17.027 17.019" xmlns="http://www.w3.org/2000/svg">
 <g transform="translate(-1.9876 -1.9859)">
  <g transform="translate(2,2)" fill="none" fill-rule="evenodd"></g>
  <g transform="matrix(.022237 0 0 .022237 4.9505 6.5564)" stroke-width="131.4">
   <g stroke-width="131.4">
    <g stroke-width="131.4">
     <path d="m-20.258-204.9c-64.351-1.7828-119.13 59.692-112.43 123.23 0.38561 179.94-0.77339 359.93 0.58337 539.84 4.7551 60.909 64.77 107.65 124.81 100.97 179.37-0.38508 358.78 0.77272 538.12-0.58336 60.909-4.7551 107.65-64.77 100.97-124.81-0.38648-179.22 0.77492-358.49-0.58336-537.68-4.7552-60.909-64.77-107.65-124.81-100.97h-526.67zm0 44.97c182.19 0.22948 364.41-0.45946 546.58 0.34533 39.445 2.6288 65.695 42.577 60.514 80.08v54.485h-674.55c2.1183-33.255-5.8619-68.462 8.0878-99.726 11.358-21.517 35.059-35.48 59.367-35.184zm-67.455 179.88h674.55c-0.22935 144.57 0.45928 289.16-0.34533 433.72-2.6288 39.445-42.577 65.695-80.08 60.514-177.87-0.22944-355.76 0.45942-533.61-0.34532-39.445-2.6288-65.695-42.577-60.514-80.08v-413.81zm488.61 26.437c-39.952 7.32-68.216 42.731-106.5 56.621-68.01 34.143-143.98 48.642-219.55 51.699-63.165 7.7621-95.632 89.297-60.516 140.65 12.188 36.281 64.785 35.502 80.411 48.219-5.3718 75.376 89.461 128.84 152.45 89.101 31.703-9.3937 30.829-70.434 65.415-36.399 34.979 12.988 61.793 55.108 102.38 44.953 47.037-20.489 61.45-76.959 71.018-122.84 12.248-79.897 9.138-167.75-33.698-238.56-11.692-17.161-29.358-33.504-51.408-33.449zm0 19.674c42.632 9.6091 54.126 61.076 63.753 97.71 13.793 76.898 12.628 161.75-25.872 231.63-13.848 34.328-59.768 35.935-74.414 1.9267-12.558-26.773-48.596-78.089-0.24356-82.003 51.991-25.651 55.61-107.09 6.0367-137.2-17.858-11.15-44.257-9.5597-27.296-36.674 9.9362-28.669 23.099-70.297 58.037-75.397zm-64.205 36.626c-33.789 79.935-34.732 172.16-11.308 255.07 4.0872 15.291 20.042 39.36-4.2447 20.703-75.888-41.21-161.99-63.168-248.34-63.174-55.951-11.026-71.336-93.241-26.79-126.9 29.669-23.666 70.611-12.163 105.18-20.96 65.267-9.3148 128.6-31.45 185.5-64.74zm-3.1619 82.035c46.43 4.0611 69.992 66.841 37.426 100.31-16.486 20.928-49.095 28.41-40.546-8.8283-2.0978-30.485-1.2662-61.226 3.1209-91.481zm-218.35 152.21c52.559 4.237 104.28 17.458 152.83 37.944-13.633 57.679-95.831 66.936-131.92 25.14-16.059-16.364-24.99-40.217-20.904-63.083z" color="#000000" color-rendering="auto" dominant-baseline="auto" fill="#666" image-rendering="auto" shape-rendering="auto" solid-color="#000000" stop-color="#000000" style="font-feature-settings:normal;font-variant-alternates:normal;font-variant-caps:normal;font-variant-east-asian:normal;font-variant-ligatures:normal;font-variant-numeric:normal;font-variant-position:normal;font-variation-settings:normal;inline-size:0;isolation:auto;mix-blend-mode:normal;shape-margin:0;shape-padding:0;text-decoration-color:#000000;text-decoration-line:none;text-decoration-style:solid;text-indent:0;text-orientation:mixed;text-transform:none;white-space:normal"/>
    </g>
   </g>
  </g>
 </g>
</svg>
