<svg width="17.027" height="17.019" version="1.1" viewBox="0 0 17.027 17.019" xmlns="http://www.w3.org/2000/svg">
 <g transform="translate(.012384 .014143)" fill="none" fill-rule="evenodd"></g>
 <g transform="translate(-1.9876 9.3213)">
  <g transform="translate(2,2)" fill="none" fill-rule="evenodd"></g>
  <g transform="matrix(.022237 0 0 .022237 4.9505 6.5564)" stroke-width="131.4">
   <g stroke-width="131.4">
    <g stroke-width="131.4">
     <path d="m-20.258-713.38c-64.351-1.7828-119.13 59.692-112.43 123.23 0.38561 179.94-0.77339 359.93 0.58337 539.84 4.7551 60.909 64.77 107.65 124.81 100.97 179.37-0.38508 358.78 0.77272 538.12-0.58336 60.909-4.7551 107.65-64.77 100.97-124.81-0.38648-179.22 0.77492-358.49-0.58336-537.68-4.7552-60.909-64.77-107.65-124.81-100.97z" color="#000000" color-rendering="auto" dominant-baseline="auto" fill="#00cc2c" image-rendering="auto" shape-rendering="auto" solid-color="#000000" stop-color="#000000" style="font-feature-settings:normal;font-variant-alternates:normal;font-variant-caps:normal;font-variant-east-asian:normal;font-variant-ligatures:normal;font-variant-numeric:normal;font-variant-position:normal;font-variation-settings:normal;inline-size:0;isolation:auto;mix-blend-mode:normal;shape-margin:0;shape-padding:0;text-decoration-color:#000000;text-decoration-line:none;text-decoration-style:solid;text-indent:0;text-orientation:mixed;text-transform:none;white-space:normal"/>
    </g>
   </g>
  </g>
 </g>
 <g>
  <g transform="translate(-1.9896 -1.9857)" fill="#e0ffe7">
   <g transform="translate(2,2)" fill-rule="evenodd"></g>
   <g transform="matrix(.022237 0 0 .022237 4.9505 6.5564)" stroke-width="131.4">
    <g fill="#e0ffe7" stroke-width="131.4">
     <g fill="#e0ffe7" stroke-width="131.4">
      <path d="m-20.258-159.93c182.19 0.22948 364.41-0.45946 546.58 0.34533 39.445 2.6288 65.695 42.577 60.514 80.08v54.485h-674.55c2.1183-33.255-5.8619-68.462 8.0878-99.726 11.358-21.517 35.059-35.48 59.367-35.184z" color="#000000" color-rendering="auto" dominant-baseline="auto" fill="#e0ffe7" image-rendering="auto" shape-rendering="auto" solid-color="#000000" stop-color="#000000" style="font-feature-settings:normal;font-variant-alternates:normal;font-variant-caps:normal;font-variant-east-asian:normal;font-variant-ligatures:normal;font-variant-numeric:normal;font-variant-position:normal;font-variation-settings:normal;inline-size:0;isolation:auto;mix-blend-mode:normal;shape-margin:0;shape-padding:0;text-decoration-color:#000000;text-decoration-line:none;text-decoration-style:solid;text-indent:0;text-orientation:mixed;text-transform:none;white-space:normal"/>
     </g>
    </g>
   </g>
  </g>
  <path d="m1.0199 5.014h15c-0.0051 3.2148 0.01021 6.4301-0.0077 9.6446-0.05846 0.87714-0.94678 1.4609-1.7807 1.3457-3.9552-0.0051-7.911 0.01022-11.866-0.0077-0.87714-0.05846-1.4609-0.94678-1.3457-1.7807v-9.2018z" color="#000000" color-rendering="auto" dominant-baseline="auto" fill="#e0ffe7" image-rendering="auto" shape-rendering="auto" solid-color="#000000" stop-color="#000000" style="font-feature-settings:normal;font-variant-alternates:normal;font-variant-caps:normal;font-variant-east-asian:normal;font-variant-ligatures:normal;font-variant-numeric:normal;font-variant-position:normal;font-variation-settings:normal;inline-size:0;isolation:auto;mix-blend-mode:normal;shape-margin:0;shape-padding:0;text-decoration-color:#000000;text-decoration-line:none;text-decoration-style:solid;text-indent:0;text-orientation:mixed;text-transform:none;white-space:normal"/>
  <path d="m11.807 5.8009c-0.88841 0.16278-1.5169 0.95021-2.3683 1.2591-1.5123 0.75924-3.2017 1.0817-4.8821 1.1496-1.4046 0.1726-2.1266 1.9857-1.3457 3.1276 0.27103 0.80679 1.4406 0.78945 1.7881 1.0722-0.11945 1.6761 1.9893 2.8649 3.39 1.9813 0.70498-0.20889 0.68554-1.5662 1.4546-0.80941 0.77784 0.28881 1.3741 1.2254 2.2766 0.99962 1.046-0.45562 1.3665-1.7113 1.5792-2.7315 0.27236-1.7767 0.2032-3.7303-0.74935-5.3048-0.26-0.3816-0.65284-0.74503-1.1432-0.74381zm0 0.4375c0.94801 0.21368 1.2036 1.3582 1.4177 2.1728 0.30671 1.71 0.28081 3.5968-0.57533 5.1508-0.30793 0.76336-1.3291 0.79908-1.6547 0.04284-0.27926-0.59535-1.0806-1.7365-0.0054-1.8235 1.1561-0.5704 1.2366-2.3815 0.13424-3.0508-0.39712-0.24795-0.98413-0.21258-0.60699-0.81552 0.22095-0.63751 0.51365-1.5632 1.2906-1.6766zm-1.4277 0.81445c-0.75136 1.7775-0.77233 3.8284-0.25146 5.672 0.09089 0.34002 0.44568 0.87524-0.09439 0.46037-1.6875-0.91639-3.6022-1.4047-5.5223-1.4048-1.2442-0.24518-1.5863-2.0734-0.59574-2.8219 0.65976-0.52625 1.5702-0.27047 2.339-0.46609 1.4513-0.20714 2.8596-0.69934 4.1249-1.4396zm-0.07031 1.8242c1.0325 0.09031 1.5564 1.4864 0.83223 2.2306-0.36659 0.46538-1.0917 0.63175-0.90163-0.19631-0.04665-0.6779-0.02816-1.3615 0.0694-2.0343zm-4.8555 3.3848c1.1688 0.09422 2.3189 0.38821 3.3984 0.84375-0.30315 1.2826-2.131 1.4884-2.9336 0.55904-0.3571-0.36388-0.5557-0.89431-0.46485-1.4028z" color="#000000" color-rendering="auto" dominant-baseline="auto" fill="#00cc2c" image-rendering="auto" shape-rendering="auto" solid-color="#000000" stop-color="#000000" style="font-feature-settings:normal;font-variant-alternates:normal;font-variant-caps:normal;font-variant-east-asian:normal;font-variant-ligatures:normal;font-variant-numeric:normal;font-variant-position:normal;font-variation-settings:normal;inline-size:0;isolation:auto;mix-blend-mode:normal;shape-margin:0;shape-padding:0;text-decoration-color:#000000;text-decoration-line:none;text-decoration-style:solid;text-indent:0;text-orientation:mixed;text-transform:none;white-space:normal"/>
 </g>
</svg>
