<svg viewBox="0 0 351.14 390.13" xmlns="http://www.w3.org/2000/svg">
  <g transform="translate(-74.431 -607.3)">
    <path transform="translate(74.431 607.3)" d="m154.05 0c-85.078 9e-5 -154.05 68.969-154.05 154.05-4.6e-5 85.078 68.97 154.05 154.05 154.05 29.734-3e-5 57.493-8.4338 81.035-23.025l80.727 90.418c12.268 13.741 26.613 18.767 32.693 10.805 6.08-7.9623 1.4162-25.715-10.744-39.551l-74.174-84.393c27.515-27.827 44.51-66.078 44.51-108.3-6.3e-4 -85.078-68.969-154.05-154.05-154.05zm0 26.775c71.774-2.6e-4 129.96 56.982 129.96 127.27-1e-5 70.29-58.183 127.27-129.96 127.27-71.774-4e-4 -129.96-56.982-129.96-127.27 1.5e-5 -70.289 58.185-127.27 129.96-127.27z" fill="hsl(133, 100%, 30%)" />
  </g>
</svg>
