<svg width="459.7" height="385.77" version="1.1" viewBox="0 0 459.7 385.77" xmlns="http://www.w3.org/2000/svg">
 <g id="_x33_35-telegram" transform="translate(-26.598 -62.789)" fill="#00cc2c">
  <g fill="#00cc2c">
   <g fill="#00cc2c">
    <path d="m484.69 98.231c-23.563 110.48-46.609 221.09-70.497 331.5-2.6901 20.579-27.99 24.366-41.09 10.994l-101.9-75.093c-19.994 18.682-38.94 38.632-59.697 56.39-15.183 10.322-12.592-4.8252-11.325-14.898 2.1103-29.919 4.2205-59.837 6.3308-89.756 65.344-59.046 130.69-118.09 196.03-177.14 8.2891-16.18-17.78-2.9903-24.424 2.8275-77.055 48.519-154.11 97.038-231.17 145.56-37.195-12.072-74.974-22.582-111.79-35.685-21.722-11.607 2.9685-30.115 17.779-32.706 135.35-51.987 270.51-104.53 405.99-156.17 21.379-7.0608 31.55 17.007 25.756 34.178z" color="#000000" color-rendering="auto" dominant-baseline="auto" fill="#00cc2c" image-rendering="auto" shape-rendering="auto" solid-color="#000000" stop-color="#000000" style="font-feature-settings:normal;font-variant-alternates:normal;font-variant-caps:normal;font-variant-east-asian:normal;font-variant-ligatures:normal;font-variant-numeric:normal;font-variant-position:normal;font-variation-settings:normal;inline-size:0;isolation:auto;mix-blend-mode:normal;shape-margin:0;shape-padding:0;text-decoration-color:#000000;text-decoration-line:none;text-decoration-style:solid;text-indent:0;text-orientation:mixed;text-transform:none;white-space:normal"/>
   </g>
  </g>
 </g>
</svg>
