<svg width="171.51" height="139.38" version="1.1" xmlns="http://www.w3.org/2000/svg">
 <g transform="translate(-282.32 -396.31)">
  <path d="m453.83 412.81c-5.0635 2.4246-18.019 6.2879-18.867 4.6945 6.6336-4.372 11.726-11.043 14.129-18.621-7.8528 3.15-19.146 12.525-26.231 4.9735-14.257-11.781-37.53-9.3956-48.948 5.2583-6.9564 8.2905-9.6184 19.888-7.124 30.4-27.949-1.2316-54.969-15.007-72.525-36.764-9.4278 15.365-4.3258 37.322 10.889 46.976-5.4486 0.28009-11.884-2.6691-15.941-3.9584-0.31918 16.29 12.212 31.567 28.226 34.503-4.5441 2.4645-13.831-0.35655-15.445 1.902 4.7072 13.407 18.203 23.076 32.425 23.135-14.53 11.511-33.707 16.824-52.093 14.571 36.986 24.351 90.51 20.43 122.42-10.724 20.899-20.009 32.827-49.192 31.532-78.133 6.8757-4.9599 12.846-11.166 17.557-18.213z" fill="#00cc2c"/>
 </g>
</svg>
